<?xml version="1.0" encoding="UTF-8"?>
<svg version="1.1" xmlns="http://www.w3.org/2000/svg" width="800" height="698">
<path d="M0 0 C7.76428793 -0.21422008 15.14675082 0.34311217 22.8125 1.5625 C23.92850586 1.73958496 25.04451172 1.91666992 26.19433594 2.09912109 C63.2402499 8.2358439 98.69766878 19.63274304 132.02441406 36.97314453 C134.10242915 38.05323987 136.18784223 39.11821863 138.2734375 40.18359375 C162.55659563 52.69318206 185.40503938 68.838713 205.3359375 87.51953125 C207.51750969 89.55076049 209.7294688 91.50801566 212 93.4375 C220.28585085 100.63356253 227.92892724 108.61834048 235 117 C235.78375 117.89460938 236.5675 118.78921875 237.375 119.7109375 C298.99305998 190.4457216 327.06509793 283.55294139 320.83929443 376.44952393 C317.98546266 416.98265613 307.15866841 455.83626225 291 493 C290.62262695 493.87205078 290.24525391 494.74410156 289.85644531 495.64257812 C283.60072432 509.91683994 276.36667603 526.1611713 266.24755859 538.06079102 C264.8248297 539.86272389 264.8248297 539.86272389 265.07543945 541.75828552 C266.46438989 545.12597227 268.96979346 547.31837136 271.54541016 549.80664062 C272.12262314 550.37626022 272.69983612 550.94587982 273.29454041 551.53276062 C274.54741389 552.76753389 275.80365958 553.99889274 277.06285477 555.22721863 C279.0531321 557.16998373 281.03304829 559.12276634 283.01034546 561.07873535 C288.6333196 566.63745263 294.27438468 572.17764731 299.92285156 577.71044922 C303.37738638 581.09564247 306.81977822 584.49280038 310.25507736 587.89750671 C311.56851448 589.19412728 312.88674563 590.48590967 314.20973587 591.77278137 C316.05565338 593.56850845 317.88589721 595.37890191 319.71337891 597.19335938 C320.26709671 597.72438766 320.82081451 598.25541595 321.39131165 598.80253601 C324.99468109 602.42443158 324.99468109 602.42443158 325.01989746 605.15313721 C323.86962527 607.23608672 322.66721803 608.68669907 320.96826172 610.35644531 C320.33024628 610.99100647 319.69223083 611.62556763 319.03488159 612.27935791 C318.34016754 612.95545105 317.64545349 613.63154419 316.9296875 614.328125 C316.21523468 615.0359613 315.50078186 615.74379761 314.76467896 616.4730835 C312.47509693 618.73925249 310.17564114 620.99506377 307.875 623.25 C305.59746529 625.49228025 303.32213874 627.7367353 301.04959106 629.98406982 C299.63593261 631.38098491 298.21918979 632.77478833 296.79879761 634.16485596 C293.62209732 637.29436668 290.55788292 640.4566955 287.65258789 643.84082031 C283.2511384 648.94572681 278.4686245 653.65564962 273.69140625 658.40625 C272.7146999 659.38108645 271.73821766 660.35614749 270.76194763 661.3314209 C268.21772539 663.87186301 265.67051264 666.40928509 263.12261963 668.94604492 C260.51284118 671.54551127 257.90596518 674.14788494 255.29882812 676.75 C250.20202128 681.83614918 245.10204492 686.9191047 240 692 C233.05896567 686.31978209 226.82326094 679.94998244 220.50390625 673.6015625 C219.30343713 672.39922532 218.10274482 671.19711095 216.90184021 669.99520874 C213.76133452 666.85090837 210.62384519 663.70361521 207.48699951 660.55566406 C204.27767382 657.33605827 201.06546995 654.11932679 197.85351562 650.90234375 C191.56620898 644.60435365 185.28208894 638.30319435 179 632 C177.91154785 632.61552734 176.8230957 633.23105469 175.70166016 633.86523438 C175.08940582 634.21146851 174.47715149 634.55770264 173.84634399 634.91442871 C171.53497083 636.27341726 169.3280969 637.77338413 167.12207031 639.29614258 C141.91666582 656.66448377 113.95409031 670.18837694 85 680 C83.97084473 680.34901367 82.94168945 680.69802734 81.88134766 681.05761719 C51.7312101 691.12157635 19.8352161 698.03100696 -12.046875 698.23828125 C-13.28395706 698.2480751 -14.52103912 698.25786896 -15.79560852 698.26795959 C-19.78041537 698.29303914 -23.76512838 698.30664352 -27.75 698.3125 C-28.76555025 698.31422588 -28.76555025 698.31422588 -29.80161667 698.31598663 C-49.80694176 698.33964231 -69.31446149 698.01970437 -89 694 C-90.11810059 693.78569336 -91.23620117 693.57138672 -92.38818359 693.35058594 C-109.27670397 690.0827607 -125.70355597 685.48320203 -142 680 C-142.9796875 679.67193359 -143.959375 679.34386719 -144.96875 679.00585938 C-168.93874571 670.83866325 -192.67871253 659.70081226 -214 646 C-214.71333496 645.54592773 -215.42666992 645.09185547 -216.16162109 644.62402344 C-241.59997327 628.34039527 -264.37024043 608.94689772 -285.54296875 587.47290039 C-287.35473288 585.64140357 -289.17834281 583.82165719 -291 582 C-327.63 618.63 -364.26 655.26 -402 693 C-409.875 686.25 -409.875 686.25 -412.34739685 683.77285767 C-412.91235367 683.20927551 -413.47731049 682.64569336 -414.05938721 682.06503296 C-414.65136902 681.46945587 -415.24335083 680.87387878 -415.85327148 680.26025391 C-416.82040825 679.29333618 -416.82040825 679.29333618 -417.80708313 678.30688477 C-419.91413559 676.19914181 -422.01763474 674.08789107 -424.12109375 671.9765625 C-425.59060627 670.50518273 -427.06034135 669.0340252 -428.5302887 667.56307983 C-432.38099528 663.70857225 -436.22868807 659.85107001 -440.07574463 655.99291992 C-444.00895449 652.04944377 -447.9450298 648.10882996 -451.88085938 644.16796875 C-459.59003446 636.44809901 -467.29602623 628.72506011 -475 621 C-473.41072756 617.12357999 -470.92463742 614.68964571 -467.97119141 611.76000977 C-467.46038528 611.25051788 -466.94957916 610.741026 -466.42329407 610.21609497 C-464.7372702 608.53655028 -463.04438441 606.86409646 -461.3515625 605.19140625 C-460.17522162 604.02133952 -458.9993969 602.85075365 -457.82406616 601.67967224 C-454.72927634 598.59817868 -451.62897281 595.5222979 -448.52703857 592.44799805 C-443.56824566 587.53232784 -438.61610483 582.60998016 -433.66727829 577.68427849 C-431.94143289 575.96861516 -430.21219112 574.25643116 -428.48257446 572.54457092 C-427.41746462 571.48629386 -426.35246648 570.42790435 -425.28759766 569.36938477 C-424.36097321 568.45101334 -423.43434875 567.53264191 -422.47964478 566.58644104 C-420.00035128 564.07766532 -420.00035128 564.07766532 -417.98202515 561.47691345 C-416.28382313 559.35469042 -414.5177733 557.44645266 -412.5779438 555.5476799 C-410.54950386 553.55814407 -408.55262471 551.53850702 -406.55332947 549.51968384 C-405.69399307 548.65312164 -404.83465668 547.78655945 -403.94927979 546.89373779 C-403.49263695 546.4332177 -403.03599411 545.9726976 -402.56551361 545.49822235 C-392.02246628 534.86648317 -381.4648286 524.24932772 -370.89914608 513.64008522 C-364.7946891 507.50977967 -358.6950519 501.37481364 -352.60620117 495.22900391 C-347.28492323 489.85797418 -341.95498667 484.4957185 -336.61436373 479.14392126 C-333.78975708 476.31278876 -330.96973913 473.47739956 -328.16007805 470.63142776 C-325.52205866 467.95958222 -322.87266313 465.29958302 -320.21391106 462.64837265 C-319.23881039 461.67189209 -318.26801378 460.69109236 -317.30182266 459.70579529 C-315.98599822 458.3652288 -314.65328006 457.04130574 -313.31968689 455.71841431 C-312.20668417 454.59849814 -312.20668417 454.59849814 -311.07119656 453.45595741 C-309 452 -309 452 -306.83652592 452.17664146 C-304.53970016 453.20636344 -303.29902466 454.45187247 -301.609375 456.31640625 C-300.98619385 456.99453369 -300.3630127 457.67266113 -299.72094727 458.37133789 C-299.07053467 459.09442139 -298.42012207 459.81750488 -297.75 460.5625 C-296.40057867 462.03202096 -295.0503272 463.50078008 -293.69921875 464.96875 C-293.05645996 465.67128906 -292.41370117 466.37382812 -291.75146484 467.09765625 C-286.18159585 473.14733833 -280.2510479 478.66790957 -274 484 C-273.11183594 484.77730469 -272.22367188 485.55460937 -271.30859375 486.35546875 C-206.94161141 542.29318968 -121.67073096 577.32087041 -36 577.1875 C-34.91600922 577.18659363 -34.91600922 577.18659363 -33.81011963 577.18566895 C-21.78071959 577.15849884 -9.9207901 576.69868374 2 575 C2.90830566 574.87109375 3.81661133 574.7421875 4.75244141 574.609375 C19.13935128 572.48780304 33.0975429 569.25242505 47 565 C47.82532227 564.74911621 48.65064453 564.49823242 49.50097656 564.23974609 C64.34498314 559.62879319 78.12564128 552.94916955 92 546 C87.19125696 540.21210957 82.0266068 534.88834563 76.69863892 529.5783844 C75.77062953 528.64952059 74.84262015 527.72065678 73.88648927 526.76364559 C71.3255278 524.20045937 68.76147786 521.64038272 66.19689059 519.08082497 C63.42623693 516.31450475 60.65848926 513.54527966 57.89038086 510.77641296 C53.09900085 505.98450956 48.30579875 501.19443507 43.51134109 496.40561104 C36.57943064 489.48184046 29.65029532 482.55529803 22.72182612 475.62808406 C11.47975564 464.38820018 0.23545554 453.15054957 -11.01025391 441.91430664 C-21.93200088 431.0017439 -32.85269318 420.08812748 -43.77197266 409.1730957 C-44.44545732 408.49987377 -45.11894198 407.82665183 -45.81283526 407.13302923 C-49.19162877 403.75554079 -52.5704016 400.37803166 -55.94916415 397.00051224 C-83.96290366 368.99713317 -111.98026476 340.99737976 -140 313 C-141.10413175 313.93686291 -142.20688718 314.87534801 -143.30907917 315.81449223 C-143.92332699 316.33693235 -144.53757481 316.85937246 -145.1704362 317.3976441 C-147.96143972 319.84204148 -150.55370571 322.46244303 -153.1472168 325.11303711 C-153.71727448 325.69098022 -154.28733215 326.26892334 -154.87466431 326.86437988 C-156.09895406 328.10572852 -157.32217492 329.34813214 -158.5444088 330.59150505 C-161.14419757 333.23364355 -163.75356373 335.86623738 -166.36235523 338.49948215 C-171.20809689 343.39086683 -176.04975189 348.28613963 -180.87524414 353.19750977 C-184.24419524 356.62567971 -187.62508508 360.0416592 -191.01432228 363.44976997 C-192.30229206 364.7495067 -193.58570693 366.05377327 -194.86447716 367.36256218 C-196.64534984 369.18422339 -198.44099562 370.98996118 -200.2409668 372.79272461 C-200.76728195 373.33858719 -201.29359711 373.88444977 -201.83586121 374.44685364 C-203.32621765 375.92076111 -203.32621765 375.92076111 -206 378 C-209.72755308 377.73358073 -211.55923798 375.82157308 -214.13227844 373.26213074 C-215.35433235 372.05710152 -215.35433235 372.05710152 -216.60107422 370.82772827 C-217.48593506 369.93993683 -218.3707959 369.05214539 -219.2824707 368.13745117 C-220.22987902 367.19738286 -221.17790811 366.2579398 -222.12651062 365.31907654 C-224.69949815 362.76831546 -227.26275199 360.20798146 -229.82370019 357.64513946 C-231.96101403 355.50770602 -234.10265016 353.37462908 -236.24418801 351.24142915 C-241.29396668 346.21088683 -246.33552572 341.1722077 -251.37231445 336.12866211 C-256.57372445 330.9206034 -261.78973458 325.72749846 -267.01296169 320.54132861 C-271.49414962 316.09078712 -275.96566544 311.63068762 -280.42960614 307.16284734 C-283.09716773 304.49321385 -285.76840366 301.82753014 -288.44918251 299.17116356 C-291.43507643 296.21156687 -294.40058535 293.23233811 -297.36450195 290.25073242 C-298.25948395 289.36901367 -299.15446594 288.48729492 -300.0765686 287.57885742 C-301.27747383 286.36113899 -301.27747383 286.36113899 -302.50263977 285.11882019 C-303.2063033 284.41586917 -303.90996683 283.71291815 -304.6349535 282.98866558 C-306 281 -306 281 -305.74732274 279.06654841 C-304.93073943 276.8084759 -304.06814108 275.66476081 -302.40788269 273.94655991 C-301.85496583 273.36731884 -301.30204897 272.78807777 -300.73237705 272.19128394 C-300.11968432 271.56481979 -299.5069916 270.93835563 -298.87573242 270.29290771 C-298.22845908 269.61978743 -297.58118574 268.94666714 -296.91429806 268.25314927 C-294.73545002 265.9918647 -292.54568257 263.74148499 -290.35546875 261.49121094 C-288.79270412 259.87528131 -287.23036695 258.2589382 -285.66842651 256.64221191 C-271.35722445 241.85277901 -256.93124227 227.17399678 -242.47883606 212.52264023 C-240.54196375 210.55862629 -238.60533715 208.59437047 -236.66894531 206.62988281 C-235.9470867 205.89758459 -235.9470867 205.89758459 -235.21064508 205.15049246 C-227.44778018 197.2717539 -219.74983184 189.33257472 -212.07581985 181.36737105 C-204.17454149 173.16884483 -196.20975337 165.03732693 -188.18565464 156.95872331 C-183.69020751 152.42904306 -179.22685126 147.87611431 -174.83065796 143.2498703 C-144.83296294 111.7502651 -144.83296294 111.7502651 -129.32519627 110.67433095 C-123.21821011 110.54074561 -117.33630522 111.36116527 -111.33842468 112.48389435 C-106.51677454 113.22930008 -102.00099177 112.8689767 -97.1875 112.25 C-96.36911148 112.15267704 -95.55072296 112.05535408 -94.70753479 111.95508194 C-71.14386699 109.04215999 -46.62318586 102.83570058 -25.7734375 91.19921875 C-22.45001387 89.7621891 -21.40373266 89.89901006 -18 91 C-15.56973267 92.91560364 -15.56973267 92.91560364 -13.01025391 95.45629883 C-12.53974609 95.91819107 -12.06923828 96.38008331 -11.58447266 96.85597229 C-10.03818565 98.37962701 -8.50702393 99.91749261 -6.9765625 101.45703125 C-5.90565283 102.52270576 -4.83422386 103.58785865 -3.76229858 104.6525116 C-1.52150188 106.88291039 0.71166213 109.12062346 2.93994141 111.36352539 C5.79992621 114.24073533 8.67981571 117.09704258 11.56592369 119.94801807 C13.7811836 122.14135433 15.98467207 124.34622109 18.18483353 126.55469322 C19.24240602 127.61308725 20.3038489 128.66762822 21.36915207 129.71824074 C22.8539399 131.18566697 24.32194296 132.66805606 25.78662109 134.15551758 C27.04640274 135.41674187 27.04640274 135.41674187 28.33163452 136.70344543 C30 139 30 139 29.80398083 140.92127895 C28.84574142 143.39884106 27.68589636 144.68359002 25.80467224 146.55609131 C25.1217511 147.24313644 24.43882996 147.93018158 23.73521423 148.63804626 C22.98139969 149.38107498 22.22758514 150.1241037 21.45092773 150.88964844 C20.66074249 151.68027176 19.87055725 152.47089508 19.056427 153.28547668 C16.4391964 155.90061496 13.81149491 158.50496315 11.18359375 161.109375 C9.36833053 162.91904388 7.55372792 164.72937563 5.73976135 166.54034424 C1.44933575 170.82048033 -2.84770222 175.09386673 -7.14800924 179.36406636 C-12.04381477 184.22633696 -16.93110198 189.09713136 -21.81769097 193.96866179 C-31.86900844 203.98862364 -41.93098037 213.99782939 -52 224 C-50.55238141 227.31798484 -48.74699772 229.50190129 -46.19314384 232.05295181 C-45.39494756 232.8551302 -44.59675127 233.65730858 -43.77436721 234.4837954 C-42.89305668 235.35928025 -42.01174616 236.2347651 -41.10372925 237.13677979 C-40.16112134 238.08025977 -39.21895303 239.0241791 -38.27718747 239.9684999 C-35.68662974 242.5635347 -33.0898686 245.15228363 -30.4920671 247.74006414 C-27.6922792 250.53122506 -24.89826323 253.32815314 -22.10354614 256.12438965 C-17.26025225 260.96873287 -12.41330635 265.80939717 -7.56386948 270.64759064 C-0.55238143 277.64283313 6.45358556 284.64358364 13.458212 291.64569613 C24.82256287 303.00566842 36.19137405 314.36116605 47.56298828 325.71386719 C58.61025114 336.74277548 69.65541405 347.77377981 80.69775391 358.80761719 C81.37826345 359.48760129 82.058773 360.16758538 82.75990404 360.86817506 C86.1737654 364.27942636 89.58758545 367.690719 93.00138497 371.10203218 C121.32785593 399.40776555 149.66156508 427.70624472 178 456 C207.52133397 418.1454878 209.79200441 350.28272071 204.39794922 305.09521484 C199.32091222 265.60645712 188.11031929 228.32549353 172 192 C171.64969727 191.20013672 171.29939453 190.40027344 170.93847656 189.57617188 C156.49796776 156.76616304 136.26888273 126.24369917 113.42675781 98.73095703 C112.17142258 97.20797161 110.93926912 95.66594085 109.7109375 94.12109375 C100.47409297 82.51449698 90.01526281 71.94202746 79.5625 61.4375 C78.92497803 60.79530518 78.28745605 60.15311035 77.63061523 59.49145508 C73.25092564 55.12657905 68.68901408 51.02869309 64 47 C62.55367187 45.7315625 62.55367187 45.7315625 61.078125 44.4375 C42.71588433 28.61148042 22.80519018 14.35730603 1.84033203 2.18383789 C1.23302246 1.79317139 0.62571289 1.40250488 0 1 C0 0.67 0 0.34 0 0 Z " fill="#DA241C" transform="translate(475,0)"/>
</svg>
