<?xml version="1.0" standalone="no"?>
<!DOCTYPE svg PUBLIC "-//W3C//DTD SVG 20010904//EN"
 "http://www.w3.org/TR/2001/REC-SVG-20010904/DTD/svg10.dtd">
<svg version="1.0" xmlns="http://www.w3.org/2000/svg"
 width="300.000000pt" height="203.000000pt" viewBox="0 0 300.000000 203.000000"
 preserveAspectRatio="xMidYMid meet">
<metadata>
Created by potrace 1.10, written by Peter Selinger 2001-2011
</metadata>
<g transform="translate(0.000000,203.000000) scale(0.100000,-0.100000)"
fill="#000000" stroke="none">
<path d="M1474 1938 c-12 -40 -59 -189 -105 -331 l-84 -258 -348 1 c-191 0
-347 -3 -347 -7 0 -5 10 -14 23 -22 12 -8 106 -75 209 -150 103 -75 217 -157
253 -182 36 -26 68 -49 71 -52 3 -2 -17 -71 -45 -153 -27 -82 -72 -220 -100
-308 -28 -87 -56 -167 -62 -178 -17 -32 -3 -32 38 -1 44 35 149 112 283 208
52 38 127 93 167 122 l71 54 107 -78 c59 -43 142 -103 184 -133 42 -31 120
-89 174 -129 54 -40 100 -71 103 -68 3 3 -1 18 -9 34 -8 15 -35 96 -62 178
-26 83 -69 217 -96 299 -27 82 -46 153 -42 156 9 8 397 288 462 334 24 17 55
40 68 51 l24 20 -350 -3 c-274 -3 -351 -1 -351 9 0 11 -92 300 -171 542 -16
48 -29 94 -29 102 0 36 -17 9 -36 -57z m126 -315 c50 -153 98 -285 107 -293
15 -12 66 -15 307 -17 159 -1 290 -4 292 -6 4 -4 -59 -53 -191 -149 -55 -40
-104 -76 -110 -80 -5 -5 -42 -31 -81 -59 -110 -78 -109 -62 -25 -321 40 -123
79 -243 87 -267 26 -81 21 -85 -43 -41 -32 22 -69 48 -83 59 -14 11 -63 46
-110 79 -47 34 -90 65 -96 70 -6 6 -42 31 -79 56 -50 35 -73 45 -88 40 -18 -6
-340 -235 -357 -254 -17 -19 -121 -82 -127 -77 -8 8 -1 32 94 325 67 208 74
236 63 258 -7 13 -54 53 -104 89 -50 35 -149 108 -221 160 -71 52 -134 97
-140 99 -6 3 -4 9 5 15 10 7 114 11 296 11 278 0 281 0 301 23 12 13 57 132
108 290 47 147 90 267 95 267 5 0 50 -125 100 -277z"/>
</g>
</svg>
